HIERARCHY
ROOT Hips
{
 OFFSET 0.000000 0.000000 0.000000
 CHANNELS 6 Xposition Yposition Zposition Yrotation Xrotation Zrotation
 JOINT Chest
 {
  OFFSET 0.000000 9.585900 0.002600
  CHANNELS 3 Yrotation Xrotation Zrotation
  JOINT Chest2
  {
   OFFSET 0.000000 9.601200 -0.005300
   CHANNELS 3 Yrotation Xrotation Zrotation
   JOINT Chest3
   {
    OFFSET 0.000000 9.561800 0.000000
    CHANNELS 3 Yrotation Xrotation Zrotation
    JOINT Chest4
    {
     OFFSET 0.000000 9.552100 0.000000
     CHANNELS 3 Yrotation Xrotation Zrotation
     JOINT Neck
     {
      OFFSET 0.000000 14.453000 0.000000
      CHANNELS 3 Yrotation Xrotation Zrotation
      JOINT Head
      {
       OFFSET 0.000000 8.936500 -0.011300
       CHANNELS 3 Yrotation Xrotation Zrotation
       End Site
       {
        OFFSET 0.000000 17.073600 -0.006000
       }
      }
     }
     JOINT RightCollar
     {
      OFFSET -2.921100 9.558500 0.000000
      CHANNELS 3 Yrotation Xrotation Zrotation
      JOINT RightShoulder
      {
       OFFSET -13.519700 0.000000 0.000000
       CHANNELS 3 Yrotation Xrotation Zrotation
       JOINT RightElbow
       {
        OFFSET 0.000000 -29.696600 0.000000
        CHANNELS 3 Yrotation Xrotation Zrotation
        JOINT RightWrist
        {
         OFFSET 0.000000 -24.004700 0.000000
         CHANNELS 3 Yrotation Xrotation Zrotation
         End Site
         {
          OFFSET 0.000000 -17.728500 0.000000
         }
        }
       }
      }
     }
     JOINT LeftCollar
     {
      OFFSET 2.921100 9.558500 0.000000
      CHANNELS 3 Yrotation Xrotation Zrotation
      JOINT LeftShoulder
      {
       OFFSET 13.519700 0.000000 0.000000
       CHANNELS 3 Yrotation Xrotation Zrotation
       JOINT LeftElbow
       {
        OFFSET 0.000000 -29.696600 0.000000
        CHANNELS 3 Yrotation Xrotation Zrotation
        JOINT LeftWrist
        {
         OFFSET 0.000000 -24.004700 0.000000
         CHANNELS 3 Yrotation Xrotation Zrotation
         End Site
         {
          OFFSET 0.000000 -17.728500 0.000000
         }
        }
       }
      }
     }
    }
   }
  }
 }
 JOINT RightHip
 {
  OFFSET -7.771700 -0.012900 -0.001300
  CHANNELS 3 Yrotation Xrotation Zrotation
  JOINT RightKnee
  {
   OFFSET 0.000000 -40.869800 0.001200
   CHANNELS 3 Yrotation Xrotation Zrotation
   JOINT RightAnkle
   {
    OFFSET 0.000000 -39.717900 0.002100
    CHANNELS 3 Yrotation Xrotation Zrotation
    JOINT RightToe
    {
     OFFSET 0.000000 -4.965400 11.033500
     CHANNELS 3 Yrotation Xrotation Zrotation
     End Site
     {
      OFFSET 0.000000 -1.423100 5.872300
     }
    }
   }
  }
 }
 JOINT LeftHip
 {
  OFFSET 7.771700 -0.012900 -0.001300
  CHANNELS 3 Yrotation Xrotation Zrotation
  JOINT LeftKnee
  {
   OFFSET 0.000000 -40.869800 0.001200
   CHANNELS 3 Yrotation Xrotation Zrotation
   JOINT LeftAnkle
   {
    OFFSET 0.000000 -39.717900 0.002100
    CHANNELS 3 Yrotation Xrotation Zrotation
    JOINT LeftToe
    {
     OFFSET 0.000000 -4.965400 11.033500
     CHANNELS 3 Yrotation Xrotation Zrotation
     End Site
     {
      OFFSET 0.000000 -1.423100 5.872300
     }
    }
   }
  }
 }
}
MOTION
Frames: 9
Frame Time: 0.008333
-199.047808 58.031126 28.185061 172.158816 -49.820112 -2.915085 5.118072 22.637478 3.799728 2.614969 12.961772 1.948000 3.355892 16.205897 2.533211 2.613408 12.972199 1.941156 0.296835 15.420797 1.547244 -0.048227 -7.171876 2.805433 2.185792 4.012747 0.390177 4.636105 -13.529483 -11.879435 -86.370704 -63.402837 126.099491 3.947989 22.122581 -21.940347 -10.489589 1.262335 -1.610569 0.093946 -12.223219 15.982158 73.212801 -63.224008 -116.284244 -0.234539 5.075870 12.752191 4.331261 -22.678041 -0.290261 -37.976599 73.316436 -39.432738 5.728558 -12.595062 9.286347 0.021532 -0.154238 0.026818 -2.406650 -21.264874 11.362277 52.040705 79.465203 51.342315 4.505920 -15.834552 -16.217476 0.054741 0.133805 0.019479
-199.047196 58.032072 28.184616 172.163882 -49.809597 -2.921483 5.114669 22.634205 3.796064 2.615065 12.963643 1.946043 3.356247 16.208645 2.531009 2.611553 12.975678 1.937799 0.293173 15.399032 1.561072 -0.066555 -7.193804 2.825877 2.198897 3.999082 0.370615 4.624206 -13.527311 -11.853778 -86.277995 -63.425791 126.004331 3.932309 22.132082 -21.967085 -10.494334 1.240632 -1.612666 0.109971 -12.208241 15.978361 73.144767 -63.253689 -116.223719 -0.223520 5.147482 12.771434 4.336328 -22.687134 -0.287361 -37.981989 73.316757 -39.428994 5.718198 -12.596603 9.276059 0.024984 -0.153274 0.035420 -2.412846 -21.274358 11.366232 52.036943 79.462031 51.336819 4.509327 -15.831805 -16.220062 0.051334 0.134469 0.022405
-199.046297 58.032899 28.184209 172.166850 -49.797785 -2.927465 5.112922 22.624695 3.796835 2.612910 12.972188 1.939397 3.359487 16.214651 2.527445 2.615401 12.965566 1.943766 0.247353 15.366064 1.586448 -0.101035 -7.248952 2.865462 2.206919 3.994719 0.344542 4.609660 -13.504840 -11.834643 -86.231647 -63.441485 125.957834 3.932723 22.110286 -21.973264 -10.504901 1.226768 -1.621790 0.130241 -12.185191 15.964101 73.103340 -63.298318 -116.190414 -0.207666 5.222114 12.784595 4.342335 -22.699112 -0.283791 -37.984966 73.318364 -39.422964 5.710587 -12.593970 9.271604 0.031134 -0.157156 0.034305 -2.417760 -21.285120 11.372132 52.021484 79.462631 51.320491 4.511060 -15.831307 -16.220829 0.055772 0.134824 0.023612
-199.045620 58.033604 28.183733 172.171692 -49.784801 -2.933525 5.111553 22.620927 3.791252 2.614871 12.974314 1.939176 3.359792 16.213806 2.527320 2.618776 12.962554 1.946926 0.235212 15.350818 1.594930 -0.183375 -7.331259 2.931362 2.211791 3.990201 0.319004 4.586939 -13.466994 -11.825605 -86.246174 -63.440550 125.986786 3.930606 22.104070 -21.987600 -10.518775 1.212464 -1.631081 0.146637 -12.167673 15.958380 73.062444 -63.340690 -116.152019 -0.186727 5.292713 12.793638 4.345103 -22.711880 -0.281517 -37.988364 73.318846 -39.418939 5.699450 -12.590447 9.269561 0.035484 -0.161241 0.027915 -2.421774 -21.298217 11.377352 52.007367 79.465716 51.306915 4.510874 -15.831048 -16.220535 0.051503 0.133127 0.023133
-199.045192 58.035054 28.182405 172.172132 -49.777842 -2.934669 5.117909 22.632673 3.785745 2.617418 12.983815 1.930855 3.358943 16.187472 2.540706 2.614447 12.975630 1.936146 0.229170 15.326826 1.610992 -0.260734 -7.404716 2.983063 2.220439 3.976132 0.301056 4.577296 -13.467144 -11.798458 -86.185126 -63.459707 125.929877 3.917406 22.133150 -22.005402 -10.527200 1.190005 -1.629855 0.159340 -12.154841 15.964228 73.032360 -63.365802 -116.119944 -0.169706 5.366615 12.801366 4.351326 -22.718425 -0.279935 -38.001231 73.318399 -39.425959 5.695315 -12.588890 9.265731 0.041193 -0.163981 0.030456 -2.420989 -21.301421 11.380707 51.975988 79.466187 51.274823 4.512272 -15.835135 -16.219745 0.052834 0.135659 0.023042
-199.044517 58.036245 28.181151 172.174012 -49.768845 -2.939647 5.120643 22.630732 3.786975 2.618266 12.988209 1.927299 3.362854 16.192101 2.535703 2.616182 12.976123 1.933649 0.157216 15.272519 1.632708 -0.293879 -7.459747 3.016097 2.219544 3.956593 0.284084 4.567448 -13.447141 -11.780965 -86.182924 -63.463794 125.931403 3.895975 22.214640 -22.044382 -10.542930 1.163706 -1.623175 0.168708 -12.138829 15.968332 73.028167 -63.380139 -116.111086 -0.161131 5.449417 12.804239 4.354642 -22.726325 -0.277658 -38.008833 73.318012 -39.429582 5.706206 -12.591783 9.262677 0.036031 -0.164900 0.031094 -2.423825 -21.309233 11.385732 51.977934 79.466333 51.277449 4.516561 -15.836348 -16.224091 0.043290 0.135943 0.024005
-199.045447 58.036975 28.179719 172.179198 -49.756823 -2.939075 5.118276 22.639722 3.772392 2.618798 12.971126 1.934483 3.363239 16.206846 2.525167 2.600676 12.997953 1.914574 0.161030 15.221156 1.661817 -0.392795 -7.556672 3.066990 2.239240 3.910764 0.277816 4.549978 -13.426848 -11.761028 -86.203250 -63.455684 125.963335 3.887156 22.252674 -22.059598 -10.529288 1.122202 -1.594554 0.182976 -12.113130 15.938008 73.006876 -63.430501 -116.089364 -0.157179 5.472228 12.793662 4.357032 -22.735081 -0.281388 -38.017687 73.314427 -39.435422 5.695630 -12.596777 9.259252 0.030764 -0.160418 0.032783 -2.425823 -21.321075 11.383472 51.966784 79.473847 51.263165 4.514735 -15.841823 -16.219986 0.046262 0.135524 0.024121
-199.046188 58.037146 28.178578 172.189249 -49.740209 -2.945236 5.108764 22.630390 3.764610 2.615032 12.980179 1.926076 3.352053 16.224288 2.506170 2.615353 12.977631 1.926568 0.148338 15.196126 1.671251 -0.503398 -7.671084 3.117985 2.250153 3.890840 0.256159 4.530243 -13.399609 -11.743445 -86.188421 -63.467005 125.965790 3.878481 22.248245 -22.069073 -10.522401 1.103239 -1.589803 0.192895 -12.097974 15.927528 72.962357 -63.457331 -116.038622 -0.158918 5.489934 12.772461 4.355630 -22.750786 -0.285650 -38.035638 73.316566 -39.449771 5.699437 -12.603129 9.256609 0.031202 -0.161180 0.030747 -2.432382 -21.337810 11.383249 51.967163 79.475861 51.263633 4.515514 -15.843574 -16.220076 0.047140 0.135543 0.024110
-199.047191 58.038917 28.175743 172.192701 -49.736670 -2.944821 5.108862 22.648338 3.749720 2.610096 12.984055 1.917291 3.355461 16.210243 2.510780 2.622456 12.968955 1.934937 0.047994 15.122592 1.676863 -0.552066 -7.747626 3.148042 2.253861 3.876986 0.231286 4.511809 -13.352860 -11.742393 -86.152994 -63.488402 125.928403 3.875489 22.236854 -22.054393 -10.530901 1.082159 -1.598570 0.205104 -12.077887 15.933935 72.921379 -63.480610 -115.993166 -0.162640 5.533197 12.742046 4.360835 -22.751911 -0.294744 -38.033820 73.322368 -39.442757 5.705442 -12.609858 9.254884 0.019417 -0.162049 0.029362 -2.430067 -21.341649 11.378123 51.967212 79.483949 51.265260 4.529962 -15.846202 -16.219724 0.036875 0.133809 0.021691
